<svg width="131" height="38" viewBox="0 0 131 38" fill="none" xmlns="http://www.w3.org/2000/svg">
<path d="M49.8402 17.3131H53.5161V13.37H55.1372V22.984H53.5211V18.7065H49.8453V22.984H48.2229V13.37H49.8402V17.3131Z" fill="#17494D"/>
<path d="M60.8134 23.1102C58.6662 23.1102 57.2162 21.8144 57.2162 18.7908V17.5647C57.2162 14.5412 58.6662 13.2454 60.8134 13.2454C62.9606 13.2454 64.4246 14.5412 64.4246 17.5647V18.7908C64.4246 21.8144 62.9745 23.1102 60.8134 23.1102ZM58.8335 18.7908C58.8335 20.8669 59.5307 21.7042 60.8134 21.7042C62.0961 21.7042 62.8072 20.8682 62.8072 18.7908V17.5647C62.8072 15.4886 62.0961 14.6514 60.8134 14.6514C59.5307 14.6514 58.8335 15.4874 58.8335 17.5647V18.7908Z" fill="#17494D"/>
<path d="M70.8102 18.9433L73.5848 13.37H75.1325V22.984H73.5709V16.5468L71.3679 21.1309H70.2271L68.066 16.5924V22.9878H66.5019V13.3738H68.0356L70.8102 18.9433Z" fill="#17494D"/>
<path d="M83.4983 13.3712V14.7785H79.2205V17.3118H83.0826V18.7051H79.2205V21.5893H83.5009V22.9827H77.6006V13.3687L83.4983 13.3712Z" fill="#17494D"/>
<path d="M88.4732 13.37C90.7319 13.37 91.8955 14.206 91.8955 15.8641C91.9079 16.3156 91.7788 16.7597 91.5263 17.1344C91.2739 17.5091 90.9106 17.7957 90.4873 17.9541C91.5748 18.2606 92.2023 19.013 92.2023 20.2252C92.2023 21.6743 91.282 22.984 88.7863 22.984H85.3804V13.37H88.4732ZM86.9953 17.2967H88.5708C89.7699 17.2967 90.2718 16.7533 90.2718 15.9591C90.2718 15.2067 89.8916 14.7608 88.3617 14.7608H86.9978L86.9953 17.2967ZM86.9953 21.5881H88.6823C89.979 21.5881 90.5836 21.0587 90.5836 20.1391C90.5836 19.1257 89.9144 18.69 88.4922 18.69H86.9978L86.9953 21.5881Z" fill="#17494D"/>
<path d="M99.4628 22.984L97.6084 19.0827H95.7401V22.984H94.1227V13.37H97.3993C99.6162 13.37 100.941 14.3314 100.941 16.2403C100.941 17.5639 100.307 18.4139 99.1979 18.8179L101.247 22.984H99.4628ZM97.2877 17.6893C98.6541 17.6893 99.3234 17.3271 99.3234 16.2403C99.3234 15.1535 98.6541 14.7773 97.2877 14.7773H95.7401V17.6906L97.2877 17.6893Z" fill="#17494D"/>
<path d="M104.746 22.984H103.13V13.37H104.746V22.984Z" fill="#17494D"/>
<path d="M107.339 22.984V13.37H110.588C112.743 13.37 114.199 14.5265 114.199 17.6057V18.7457C114.199 21.825 112.749 22.9815 110.588 22.9815L107.339 22.984ZM112.582 18.7457V17.6057C112.582 15.6272 111.968 14.7773 110.588 14.7773H108.957V21.5907H110.588C111.968 21.5907 112.582 20.7268 112.582 18.7457Z" fill="#17494D"/>
<path d="M123.025 18.0524V18.7908C123.025 21.8144 121.644 23.1102 119.483 23.1102C117.322 23.1102 115.886 21.8144 115.886 18.7908V17.6344C115.886 14.5412 117.336 13.2454 119.483 13.2454C121.435 13.2454 122.676 14.3322 122.983 16.3525H121.421C121.184 15.2378 120.571 14.6526 119.483 14.6526C118.201 14.6526 117.503 15.4886 117.503 17.566V18.7921C117.503 20.8682 118.201 21.7054 119.483 21.7054C120.71 21.7054 121.324 20.9809 121.435 19.4622H119.528V18.0524H123.025Z" fill="#17494D"/>
<path d="M131 13.3712V14.7785H126.72V17.3118H130.582V18.7051H126.72V21.5893H131V22.9827H125.105V13.3687L131 13.3712Z" fill="#17494D"/>
<path d="M19.0129 38C29.5134 38 38.0258 29.4934 38.0258 19C38.0258 8.50659 29.5134 0 19.0129 0C8.51236 0 0 8.50659 0 19C0 29.4934 8.51236 38 19.0129 38Z" fill="#17494D"/>
<path d="M32.2535 17.0593H32.2332L29.8452 14.6729C29.7588 14.587 29.7101 14.4704 29.7096 14.3486V8.84372C29.7086 8.28401 29.4857 7.74752 29.0896 7.35175C28.6936 6.95597 28.1567 6.73319 27.5966 6.73218H26.1111C25.5509 6.73318 25.0139 6.95593 24.6177 7.35167C24.2214 7.7474 23.9982 8.2839 23.9969 8.84372V8.87538L20.4719 5.46425C20.072 5.0809 19.5381 4.86887 18.984 4.87336C18.4299 4.87786 17.8995 5.09853 17.5059 5.48832L5.56831 17.4178C5.17225 17.8137 4.94975 18.3507 4.94975 18.9106C4.94975 19.4704 5.17225 20.0074 5.56831 20.4033L6.70908 21.5332C7.10387 21.9264 7.63783 22.1482 8.19519 22.1506C8.75255 22.1529 9.28838 21.9357 9.6865 21.5459L18.8609 12.5107C18.9475 12.4249 19.0646 12.3767 19.1866 12.3767C19.3086 12.3767 19.4257 12.4249 19.5124 12.5107L28.5016 21.4939C28.587 21.5808 28.6347 21.6977 28.6347 21.8195C28.6347 21.9412 28.587 22.0581 28.5016 22.145L27.3964 23.2495C27.3094 23.3348 27.1924 23.3825 27.0706 23.3825C26.9488 23.3825 26.8318 23.3348 26.7449 23.2495L20.4338 17.1366C20.0339 16.7511 19.4985 16.538 18.9429 16.543C18.3872 16.5479 17.8558 16.7706 17.4628 17.1632L11.4053 23.2432C11.0112 23.6397 10.7901 24.1758 10.7901 24.7347C10.7901 25.2935 11.0112 25.8297 11.4053 26.2262L12.527 27.3472C12.9226 27.7404 13.4575 27.9618 14.0154 27.9633C14.5734 27.9647 15.1094 27.746 15.507 27.3548L18.7594 24.1362C18.8464 24.0509 18.9634 24.0032 19.0852 24.0032C19.207 24.0032 19.324 24.0509 19.411 24.1362L22.6571 27.3257C22.7007 27.3679 22.7354 27.4185 22.7591 27.4744C22.7829 27.5304 22.7951 27.5905 22.7952 27.6512C22.7952 27.7117 22.7832 27.7716 22.7599 27.8275C22.7366 27.8833 22.7026 27.934 22.6596 27.9767L19.4439 31.2004C19.43 31.2004 19.4186 31.1915 19.4034 31.1915C19.1649 31.1915 18.9319 31.2622 18.7337 31.3945C18.5354 31.5269 18.3809 31.715 18.2897 31.9351C18.1985 32.1552 18.1746 32.3975 18.2211 32.6311C18.2676 32.8648 18.3824 33.0794 18.551 33.2479C18.7196 33.4164 18.9344 33.5311 19.1682 33.5776C19.402 33.6241 19.6444 33.6002 19.8646 33.509C20.0849 33.4178 20.2732 33.2635 20.4056 33.0654C20.5381 32.8673 20.6088 32.6344 20.6088 32.3961V32.3759L23.8397 29.1484C24.036 28.9522 24.1918 28.7193 24.298 28.4629C24.4043 28.2066 24.459 27.9318 24.459 27.6544C24.459 27.3769 24.4043 27.1021 24.298 26.8458C24.1918 26.5894 24.036 26.3565 23.8397 26.1603L23.8283 26.1489L20.5809 22.9595C20.1846 22.5716 19.6519 22.3544 19.0972 22.3544C18.5425 22.3544 18.0099 22.5716 17.6136 22.9595L14.3371 26.1882C14.2943 26.231 14.2435 26.265 14.1876 26.2882C14.1317 26.3113 14.0718 26.3233 14.0113 26.3233C13.9508 26.3233 13.8909 26.3113 13.835 26.2882C13.7791 26.265 13.7283 26.231 13.6855 26.1882L12.5676 25.0672C12.4817 24.9806 12.4335 24.8636 12.4335 24.7416C12.4335 24.6197 12.4817 24.5027 12.5676 24.4161L18.6289 18.3361C18.7143 18.2492 18.8308 18.1997 18.9527 18.1985C19.0746 18.1973 19.192 18.2445 19.2791 18.3298L25.5901 24.4566C25.9897 24.8407 26.5238 25.0534 27.0782 25.0494C27.6326 25.0454 28.1634 24.8249 28.5574 24.4351L29.6627 23.3306C30.0585 22.9342 30.2808 22.3971 30.2808 21.8372C30.2808 21.2772 30.0585 20.7401 29.6627 20.3438L20.6633 11.3568C20.2683 10.9637 19.7343 10.7418 19.1768 10.7392C18.6193 10.7366 18.0832 10.9534 17.6846 11.3428L8.51024 20.3754C8.42296 20.4601 8.30612 20.5075 8.18449 20.5075C8.06286 20.5075 7.94601 20.4601 7.85873 20.3754L6.72683 19.2354C6.68398 19.1927 6.64999 19.142 6.62679 19.0861C6.6036 19.0303 6.59166 18.9704 6.59166 18.9099C6.59166 18.8494 6.6036 18.7896 6.62679 18.7337C6.64999 18.6778 6.68398 18.6271 6.72683 18.5844L18.6644 6.65491C18.751 6.56905 18.8681 6.52088 18.9901 6.52088C19.1122 6.52088 19.2292 6.56905 19.3159 6.65491L25.6421 12.7742V8.84752C25.6424 8.72545 25.6912 8.6085 25.7777 8.52231C25.8642 8.43612 25.9813 8.38772 26.1035 8.38772H27.5941C27.7164 8.38771 27.8337 8.43608 27.9203 8.52223C28.007 8.60839 28.0561 8.72534 28.0567 8.84752V14.36C28.0589 14.9197 28.2811 15.456 28.6753 15.8535L31.0544 18.2247C31.0544 18.2399 31.0468 18.2513 31.0468 18.2652C31.0471 18.5034 31.118 18.7363 31.2507 18.9342C31.3834 19.1322 31.5718 19.2864 31.7921 19.3773C32.0125 19.4682 32.2549 19.4918 32.4887 19.4451C32.7224 19.3984 32.9371 19.2834 33.1055 19.1148C33.2739 18.9462 33.3885 18.7314 33.4348 18.4977C33.481 18.264 33.4569 18.0218 33.3654 17.8018C33.274 17.5818 33.1193 17.3938 32.9209 17.2616C32.7225 17.1295 32.4894 17.0591 32.251 17.0593H32.2535Z" fill="#F8F9F9"/>
</svg>
